<svg width="56" height="56" viewBox="0 0 56 56" fill="none" xmlns="http://www.w3.org/2000/svg">
<rect x="0.5" y="0.5" width="55" height="55" rx="27.5" fill="#F0F0F0"/>
<rect x="0.5" y="0.5" width="55" height="55" rx="27.5" stroke="#E2E2E2"/>
<path d="M24.0807 32.2432L19.75 32.8615L20.3683 28.5308L31.5053 17.3938C31.9976 16.9016 32.6653 16.625 33.3615 16.625C34.0577 16.625 34.7254 16.9016 35.2177 17.3938C35.71 17.8861 35.9865 18.5538 35.9865 19.25C35.9865 19.9462 35.71 20.6139 35.2177 21.1062L24.0807 32.2432Z" stroke="#808080" stroke-width="1.5" stroke-linecap="round" stroke-linejoin="round"/>
<path d="M20.625 23.625H17.125C16.6609 23.625 16.2158 23.8094 15.8876 24.1376C15.5594 24.4658 15.375 24.9109 15.375 25.375V37.625C15.375 38.0891 15.5594 38.5342 15.8876 38.8624C16.2158 39.1906 16.6609 39.375 17.125 39.375H39.875C40.3391 39.375 40.7842 39.1906 41.1124 38.8624C41.4406 38.5342 41.625 38.0891 41.625 37.625V25.375C41.625 24.9109 41.4406 24.4658 41.1124 24.1376C40.7842 23.8094 40.3391 23.625 39.875 23.625H38.125M38.125 35H29.375M38.125 30.625H32.875" stroke="#808080" stroke-width="1.5" stroke-linecap="round" stroke-linejoin="round"/>
</svg>
