<svg width="56" height="56" viewBox="0 0 56 56" fill="none" xmlns="http://www.w3.org/2000/svg">
<rect x="0.5" y="0.5" width="55" height="55" rx="27.5" fill="#F0F0F0"/>
<rect x="0.5" y="0.5" width="55" height="55" rx="27.5" stroke="#E2E2E2"/>
<path d="M31.75 31.75V28.9375C31.75 27.9429 31.3549 26.9891 30.6516 26.2858C29.9483 25.5825 28.9945 25.1875 28 25.1875C27.0054 25.1875 26.0516 25.5825 25.3483 26.2858C24.645 26.9891 24.25 27.9429 24.25 28.9375V31.75C23.7529 31.7507 23.2764 31.9485 22.9249 32.3C22.5735 32.6514 22.3757 33.1279 22.375 33.625V39.25C22.3757 39.747 22.5735 40.2235 22.9249 40.575C23.2764 40.9264 23.7529 41.1242 24.25 41.125H31.75C32.247 41.1242 32.7235 40.9264 33.075 40.575C33.4264 40.2235 33.6242 39.747 33.625 39.25V33.625C33.6242 33.1279 33.4264 32.6514 33.075 32.3C32.7235 31.9485 32.247 31.7507 31.75 31.75ZM26.125 28.9375C26.125 28.4402 26.3225 27.9633 26.6741 27.6116C27.0258 27.26 27.5027 27.0625 28 27.0625C28.4972 27.0625 28.9741 27.26 29.3258 27.6116C29.6774 27.9633 29.875 28.4402 29.875 28.9375V31.75H26.125V28.9375ZM24.25 39.25V33.625H31.75V39.25H24.25ZM18.7234 19.6609L20.049 20.9865C21.0923 19.9408 22.3316 19.1112 23.6959 18.5451C25.0602 17.9791 26.5228 17.6877 28 17.6877C29.4771 17.6877 30.9397 17.9791 32.304 18.5451C33.6683 19.1112 34.9076 19.9408 35.9509 20.9865L37.2765 19.6609C36.0592 18.4412 34.6132 17.4735 33.0214 16.8132C31.4296 16.153 29.7232 15.8131 28 15.8131C26.2767 15.8131 24.5703 16.153 22.9785 16.8132C21.3867 17.4735 19.9407 18.4412 18.7234 19.6609Z" fill="#808080"/>
<path d="M28.0001 20.5C26.8922 20.4994 25.7951 20.7178 24.7719 21.1425C23.7486 21.5673 22.8194 22.19 22.0376 22.975L23.3613 24.2997C23.97 23.6898 24.693 23.206 25.4889 22.8758C26.2848 22.5457 27.138 22.3758 27.9996 22.3758C28.8613 22.3758 29.7145 22.5457 30.5104 22.8758C31.3063 23.206 32.0292 23.6898 32.6379 24.2997L33.9635 22.9741C33.1815 22.1892 32.2521 21.5665 31.2287 21.1419C30.2053 20.7174 29.1081 20.4992 28.0001 20.5Z" fill="#808080"/>
</svg>
